{"title":"Gang.Related.S01E04.AVI.HDTV.DivX.NLsub.{Th3Sp3cialist}","uid":10815354,"size":444894017,"categoryP":"video","categoryS":"hd___tv_shows","magnet":"?xt=urn:btih:29e6bb4e1d80d5fc27cb97bd8246b464c0e7dd5f&amp;dn=Gang.Related.S01E04.AVI.HDTV.DivX.NLsub.%7BTh3Sp3cialist%7D&amp;tr=udp%3A%2F%2Ftracker.openbittorrent.com%3A80&amp;tr=udp%3A%2F%2Fopen.demonii.com%3A1337&amp;tr=udp%3A%2F%2Ftracker.coppersurfer.tk%3A6969&amp;tr=udp%3A%2F%2Fexodus.desync.com%3A6969","seeders":1,"leechers":0,"uploader":"HOLLANDmovies","files":-1,"time":1408456372,"description":"General\nComplete name                  : Gang.Related.S01E04.AVI.HDTV.DivX.NLsub.{Th3Sp3cialist}.Episode.avi\nFormat                         : AVI\nFormat/Info                    : Audio Video Interleave\nFile size                      : 420 MiB\nDuration                       : 44mn 53s\nOverall bit rate               : 1 309 Kbps\n\nVideo\nID                             : 0\nOriginal Source\t\t       : Gang Related S01E04 1080p HDTV NL Subs - BBT\nFormat                         : xvid\nCodec ID                       : xvid\nDuration                       : 44mn 53s\nBit rate                       : 1 168 Kbps\nWidth                          : 640 pixels\nHeight                         : 360 pixels\nDisplay aspect ratio           : 16:9\nFrame rate                     : 23.976 fps\nBits/(Pixel*Frame)             : 0.212\nStream size                    : 375 MiB (89%)\n\nAudio\nID                             : 1\nFormat                         : MPEG Audio\nFormat version                 : Version 1\nFormat profile                 : Layer 3\nMode                           : Joint stereo\nMode extension                 : MS Stereo\nCodec ID                       : 55\nCodec ID/Hint                  : MP3\nDuration                       : 44mn 53s\nBit rate mode                  : Constant\nBit rate                       : 128 Kbps\nChannel(s)                     : 2 channels\nSampling rate                  : 44.1 KHz\nCompression mode               : Lossy\nStream size                    : 41.1 MiB (10%)\nAlignment                      : Aligned on interleaves\nInterleave, duration           : 26 ms (0.63 video frame)\n\n\n &lt;a href=&quot;\nhttp://bayimg.com/gApHpAaFO&quot; rel=&quot;nofollow&quot; target=&quot;_NEW&quot;&gt;\nhttp://bayimg.com/gApHpAaFO&lt;/a&gt; &lt;a href=&quot;\nhttp://bayimg.com/HaphAaaFo&quot; rel=&quot;nofollow&quot; target=&quot;_NEW&quot;&gt;\nhttp://bayimg.com/HaphAaaFo&lt;/a&gt; &lt;a href=&quot;\nhttp://bayimg.com/haPHbaAfo&quot; rel=&quot;nofollow&quot; target=&quot;_NEW&quot;&gt;\nhttp://bayimg.com/haPHbaAfo&lt;/a&gt;","torrent":{"xt":"urn:btih:29e6bb4e1d80d5fc27cb97bd8246b464c0e7dd5f","amp;dn":"Gang.Related.S01E04.AVI.HDTV.DivX.NLsub.%7BTh3Sp3cialist%7D","amp;tr":["udp%3A%2F%2Ftracker.openbittorrent.com%3A80","udp%3A%2F%2Fopen.demonii.com%3A1337","udp%3A%2F%2Ftracker.coppersurfer.tk%3A6969","udp%3A%2F%2Fexodus.desync.com%3A6969"],"infoHash":"29e6bb4e1d80d5fc27cb97bd8246b464c0e7dd5f","infoHashBuffer":{"type":"Buffer","data":[41,230,187,78,29,128,213,252,39,203,151,189,130,70,180,100,192,231,221,95]},"announce":[],"urlList":[]}}